<mxfile host="app.diagrams.net" modified="2021-12-01T10:16:57.322Z" agent="5.0 (Macintosh; Intel Mac OS X 10_15_2) AppleWebKit/605.1.15 (KHTML, like Gecko) Version/13.0.4 Safari/605.1.15" etag="i5e3A3gz3kKJy5EGDvlc" version="15.7.4" type="github">
  <diagram id="prtHgNgQTEPvFCAcTncT" name="Page-1">
    <mxGraphModel dx="666" dy="479" grid="1" gridSize="10" guides="1" tooltips="1" connect="1" arrows="1" fold="1" page="1" pageScale="1" pageWidth="827" pageHeight="1169" math="0" shadow="0">
      <root>
        <mxCell id="0" />
        <mxCell id="1" parent="0" />
        <mxCell id="dNxyNK7c78bLwvsdeMH5-11" value="Orgchart" style="swimlane;html=1;startSize=20;horizontal=1;containerType=tree;glass=0;" parent="1" vertex="1">
          <mxGeometry x="20" y="60" width="710" height="560" as="geometry" />
        </mxCell>
        <mxCell id="Ei4LlekfJ-tynDcUSh8o-2" value="" style="rounded=0;whiteSpace=wrap;html=1;" vertex="1" parent="dNxyNK7c78bLwvsdeMH5-11">
          <mxGeometry x="70" y="70" width="170" height="40" as="geometry" />
        </mxCell>
        <mxCell id="Ei4LlekfJ-tynDcUSh8o-1" value="" style="rounded=0;whiteSpace=wrap;html=1;" vertex="1" parent="dNxyNK7c78bLwvsdeMH5-11">
          <mxGeometry x="70" y="120" width="170" height="50" as="geometry" />
        </mxCell>
        <mxCell id="Ei4LlekfJ-tynDcUSh8o-3" value="" style="rounded=0;whiteSpace=wrap;html=1;" vertex="1" parent="dNxyNK7c78bLwvsdeMH5-11">
          <mxGeometry x="70" y="190" width="170" height="40" as="geometry" />
        </mxCell>
        <mxCell id="Ei4LlekfJ-tynDcUSh8o-4" value="" style="rounded=0;whiteSpace=wrap;html=1;" vertex="1" parent="dNxyNK7c78bLwvsdeMH5-11">
          <mxGeometry x="314" y="130" width="276" height="40" as="geometry" />
        </mxCell>
        <mxCell id="Ei4LlekfJ-tynDcUSh8o-5" value="compute (long[] rt)" style="text;html=1;strokeColor=none;fillColor=none;align=center;verticalAlign=middle;whiteSpace=wrap;rounded=0;" vertex="1" parent="dNxyNK7c78bLwvsdeMH5-11">
          <mxGeometry x="90" y="70" width="60" height="30" as="geometry" />
        </mxCell>
        <mxCell id="Ei4LlekfJ-tynDcUSh8o-6" value="int i = 1;&lt;br&gt;long[] rtcp = ..;" style="text;html=1;strokeColor=none;fillColor=none;align=center;verticalAlign=middle;whiteSpace=wrap;rounded=0;" vertex="1" parent="dNxyNK7c78bLwvsdeMH5-11">
          <mxGeometry x="10" y="135" width="220" height="30" as="geometry" />
        </mxCell>
        <mxCell id="Ei4LlekfJ-tynDcUSh8o-7" value="System.arraycopy(...);" style="text;html=1;strokeColor=none;fillColor=none;align=center;verticalAlign=middle;whiteSpace=wrap;rounded=0;" vertex="1" parent="dNxyNK7c78bLwvsdeMH5-11">
          <mxGeometry x="120" y="190" width="60" height="30" as="geometry" />
        </mxCell>
        <mxCell id="Ei4LlekfJ-tynDcUSh8o-9" value="throw new NullPointerException" style="text;html=1;strokeColor=none;fillColor=none;align=center;verticalAlign=middle;whiteSpace=wrap;rounded=0;" vertex="1" parent="dNxyNK7c78bLwvsdeMH5-11">
          <mxGeometry x="340" y="135" width="240" height="30" as="geometry" />
        </mxCell>
        <mxCell id="Ei4LlekfJ-tynDcUSh8o-11" value="" style="endArrow=classic;html=1;rounded=0;entryX=0;entryY=0.75;entryDx=0;entryDy=0;exitX=1;exitY=0.5;exitDx=0;exitDy=0;" edge="1" parent="dNxyNK7c78bLwvsdeMH5-11" source="Ei4LlekfJ-tynDcUSh8o-1" target="Ei4LlekfJ-tynDcUSh8o-4">
          <mxGeometry width="50" height="50" relative="1" as="geometry">
            <mxPoint x="300" y="250" as="sourcePoint" />
            <mxPoint x="350" y="200" as="targetPoint" />
            <Array as="points">
              <mxPoint x="270" y="150" />
            </Array>
          </mxGeometry>
        </mxCell>
      </root>
    </mxGraphModel>
  </diagram>
</mxfile>
